 <svg
            width="16"
            height="20"
            viewBox="0 0 16 20"
            fill="none"
            xmlns="http://www.w3.org/2000/svg"
          >
            <path
              d="M8 0C9.06087 0 10.0783 0.526784 10.8284 1.46447C11.5786 2.40215 12 3.67392 12 5C12 6.32608 11.5786 7.59785 10.8284 8.53553C10.0783 9.47322 9.06087 10 8 10C6.93913 10 5.92172 9.47322 5.17157 8.53553C4.42143 7.59785 4 6.32608 4 5C4 3.67392 4.42143 2.40215 5.17157 1.46447C5.92172 0.526784 6.93913 0 8 0ZM8 12.5C12.42 12.5 16 14.7375 16 17.5V20H0V17.5C0 14.7375 3.58 12.5 8 12.5Z"
              fill="black"
            />
          </svg>