<svg width="15" height="15" viewBox="0 0 15 15" fill="none" xmlns="http://www.w3.org/2000/svg">
<path d="M13.964 13.1194L11.3431 10.5063C12.1887 9.42898 12.6475 8.09867 12.6458 6.72917C12.6458 5.50952 12.2842 4.31726 11.6066 3.30315C10.929 2.28905 9.96586 1.49865 8.83905 1.03191C7.71224 0.565172 6.47233 0.443051 5.27611 0.680994C4.0799 0.918936 2.9811 1.50625 2.11868 2.36868C1.25625 3.2311 0.668936 4.3299 0.430994 5.52611C0.193051 6.72233 0.315172 7.96224 0.781912 9.08905C1.24865 10.2159 2.03905 11.179 3.05315 11.8566C4.06726 12.5342 5.25952 12.8958 6.47917 12.8958C7.84867 12.8975 9.17898 12.4387 10.2563 11.5931L12.8694 14.214C12.941 14.2862 13.0263 14.3436 13.1202 14.3827C13.2142 14.4218 13.3149 14.442 13.4167 14.442C13.5184 14.442 13.6192 14.4218 13.7131 14.3827C13.807 14.3436 13.8923 14.2862 13.964 14.214C14.0362 14.1423 14.0936 14.057 14.1327 13.9631C14.1718 13.8692 14.192 13.7684 14.192 13.6667C14.192 13.5649 14.1718 13.4642 14.1327 13.3702C14.0936 13.2763 14.0362 13.191 13.964 13.1194ZM1.85417 6.72917C1.85417 5.81443 2.12542 4.92023 2.63362 4.15966C3.14182 3.39908 3.86415 2.80628 4.70926 2.45623C5.55437 2.10617 6.4843 2.01458 7.38146 2.19304C8.27862 2.37149 9.10272 2.81198 9.74954 3.4588C10.3964 4.10562 10.8368 4.92971 11.0153 5.82688C11.1938 6.72404 11.1022 7.65397 10.7521 8.49908C10.4021 9.34419 9.80926 10.0665 9.04868 10.5747C8.2881 11.0829 7.39391 11.3542 6.47917 11.3542C5.25254 11.3542 4.07616 10.8669 3.2088 9.99954C2.34144 9.13218 1.85417 7.9558 1.85417 6.72917Z" fill="#637381"/>
</svg>
